<?xml version="1.0"?>
<svg xmlns="http://www.w3.org/2000/svg" xmlns:xlink="http://www.w3.org/1999/xlink" width="141.3" height="159.7" viewBox="0 0 141.3 159.7">
<defs>
  <linearGradient id="c" gradientUnits="userSpaceOnUse" x1="4.682" y1="79.668" x2="136.667" y2="79.668">
    <stop offset=".006" stop-color="#D40600"/>
    <stop offset=".191" stop-color="#D90E09"/>
    <stop offset=".499" stop-color="#E52523"/>
    <stop offset=".889" stop-color="#F9494C"/>
    <stop offset="1" stop-color="#FF5459"/>
  </linearGradient>
  <path id="a" d="M70.7-3.3h76v165h-76z"/>
  <clipPath id="b">
    <use xlink:href="#a" overflow="visible"/>
  </clipPath>
</defs>
<g>
  <path fill="#D40600" d="M5.7 5.7h130l-12.1 133.5-52.9 14.5-53.9-14.5z"/>
  <g clip-path="url(#b)">
    <path fill="url(#c)" d="M4.7 5.7h132l-12.3 133.5-53.7 14.5L16 139.2z"/>
  </g>
  <g>
    <path fill="rgb(194, 11, 11)" d="M81.1 76.6l27.6-8.5 2.4 7.5-11 7.9zM60.1 76.6l-27.6-8.5-2.4 7.5 11 7.9z"/>
    <path opacity=".3" fill="rgba(255, 255, 255, 0.74)" d="M41.1 81.5L30.6 74l-.5 1.6 11 7.9 19-6.9-3-.9zM100.1 81.5l10.5-7.5.5 1.6-11 7.9-19-6.9 2.9-.9z"/>
    <path fill="#7C0404" d="M41.1 81.5L30.6 74"/>
    <path fill="#fff" d="M112.7 48.7l-33 5 1.5-18 33-5z"/>
    <path fill="#E5E5E5" d="M28.7 48.7l33 5-1.6-18-33-5z"/>
    <path fill="#fff" d="M79.7 116.7l-9 2-9-2v-63h18z"/>
    <path fill="#E5E5E5" d="M61.7 53.7v63l9 2v-65z"/>
    <path fill="#D40600" d="M127.6 11.7l-10.2 122.5-46.7 12.7L24 134.2 13.7 11.7h113.9m13.1-12H.7l12 143.9 58 15.7 58-15.7 12-143.9z"/>
  </g>
</g>
</svg>
